# xmcd
#
# Track frame offsets: 
#        150
#        18331
#        41476
#        57981
#        77426
#        98019
#        118632
#        135153
#        153546
#        177643
#        199244
#        217709
#        236098
#        255859
#        274020
#        294133
#        310374
#
# Disc length: 4427 seconds
#
# Revision: 2
# Processed by: cddbd v1.5.2PL0 Copyright (c) Steve Scherf et al.
# Submitted via: ExactAudioCopy v0.99pb5
#
DISCID=dc114911
DTITLE=Only Music Instrumental (Panpipes) - Panpipes Play (Love Songs)
DTITLE=Vol.3
DYEAR=2011
DGENRE=Instrumental
TTITLE0=I will always Love you
TTITLE1=The Winner takes it all
TTITLE2=Implora
TTITLE3=Ti Amo
TTITLE4=I have a Dream
TTITLE5=Everything I do I do it for you
TTITLE6=Dance with the Wolves
TTITLE7=Hello
TTITLE8=Sacrifice
TTITLE9=1942 Conquest of Paradise
TTITLE10=Can you feel the Love tonight
TTITLE11=Lady
TTITLE12=I just called to say I Love you
TTITLE13=Don't cry for me Argentina
TTITLE14=Right here waiting
TTITLE15=Without you
TTITLE16=The House of the Rising Sun
EXTD=
EXTT0=
EXTT1=
EXTT2=
EXTT3=
EXTT4=
EXTT5=
EXTT6=
EXTT7=
EXTT8=
EXTT9=
EXTT10=
EXTT11=
EXTT12=
EXTT13=
EXTT14=
EXTT15=
EXTT16=
PLAYORDER=
